HIERARCHY
ROOT Hips
{
	OFFSET 0.000000 0.000000 0.000000
	CHANNELS 6 Xposition Yposition Zposition Zrotation Xrotation Yrotation
	JOINT RightUpLeg
	{
		OFFSET -10.032200 0.000000 0.000000
		CHANNELS 3 Zrotation Xrotation Yrotation
		JOINT RightLeg
		{
			OFFSET 0.000000 -40.977000 0.000000
			CHANNELS 3 Zrotation Xrotation Yrotation
			JOINT RightFoot
			{
				OFFSET 0.000000 -38.933200 0.000000
				CHANNELS 3 Zrotation Xrotation Yrotation
				JOINT RightToe
				{
					OFFSET 0.000000 -1.977400 9.184000
					CHANNELS 3 Zrotation Xrotation Yrotation
					JOINT RightToeEnd
					{
						OFFSET 0.000000 2.335600 6.099100
						CHANNELS 3 Zrotation Xrotation Yrotation
						End Site
						{
						    OFFSET 0.000000 1.788000 4.669400
						}
					}
				}
			}
		}
	}
	JOINT LeftUpLeg
	{
		OFFSET 10.032200 0.000000 0.000000
		CHANNELS 3 Zrotation Xrotation Yrotation
		JOINT LeftLeg
		{
			OFFSET 0.000000 -40.977000 0.000000
			CHANNELS 3 Zrotation Xrotation Yrotation
			JOINT LeftFoot
			{
				OFFSET 0.000000 -38.933200 0.000000
				CHANNELS 3 Zrotation Xrotation Yrotation
				JOINT LeftToe
				{
					OFFSET 0.000000 -1.977400 9.184000
					CHANNELS 3 Zrotation Xrotation Yrotation
					JOINT LeftToeEnd
					{
						OFFSET 0.000000 2.335600 6.099100
						CHANNELS 3 Zrotation Xrotation Yrotation
						End Site
						{
						    OFFSET 0.000000 1.788000 4.669400
						}
					}
				}
			}
		}
	}
	JOINT Spine
	{
		OFFSET 0.000000 16.960900 0.000000
		CHANNELS 3 Zrotation Xrotation Yrotation
		JOINT Spine1
		{
			OFFSET 0.000000 13.413900 0.000000
			CHANNELS 3 Zrotation Xrotation Yrotation
			JOINT Spine2
			{
				OFFSET 0.000000 10.384400 0.000000
				CHANNELS 3 Zrotation Xrotation Yrotation
				JOINT LeftShoulder
				{
					OFFSET 2.000000 10.384400 0.000000
					CHANNELS 3 Zrotation Xrotation Yrotation
					JOINT LeftArm
					{
						OFFSET 15.649100 0.000000 0.000000
						CHANNELS 3 Zrotation Xrotation Yrotation
						JOINT LeftForeArm
						{
							OFFSET 0.000000 -26.641600 0.000000
							CHANNELS 3 Zrotation Xrotation Yrotation
							JOINT LeftHand
							{
								OFFSET 0.000000 -23.740600 0.000000
								CHANNELS 3 Zrotation Xrotation Yrotation
								JOINT LeftFinger0
								{
									OFFSET 0.000000 -7.620900 0.000000
									CHANNELS 3 Zrotation Xrotation Yrotation
									End Site
									{
									    OFFSET 0.000000 -5.000000 0.000000
									}
								}
							}
						}
					}
				}
				JOINT RightShoulder
				{
					OFFSET -2.000000 10.384400 0.000000
					CHANNELS 3 Zrotation Xrotation Yrotation
					JOINT RightArm
					{
						OFFSET -15.649100 0.000000 0.000000
						CHANNELS 3 Zrotation Xrotation Yrotation
						JOINT RightForeArm
						{
							OFFSET 0.000000 -26.641600 0.000000
							CHANNELS 3 Zrotation Xrotation Yrotation
							JOINT RightHand
							{
								OFFSET 0.000000 -23.740600 0.000000
								CHANNELS 3 Zrotation Xrotation Yrotation
								JOINT RightFinger0
								{
									OFFSET 0.000000 -7.620900 0.000000
									CHANNELS 3 Zrotation Xrotation Yrotation
									End Site
									{
									    OFFSET 0.000000 -5.000000 0.000000
									}
								}
							}
						}
					}
				}
				JOINT Neck
				{
					OFFSET 0.000000 10.384400 0.000000
					CHANNELS 3 Zrotation Xrotation Yrotation
					JOINT Head
					{
						OFFSET 0.000000 10.146900 0.000000
						CHANNELS 3 Zrotation Xrotation Yrotation
						JOINT HeadTip
						{
							OFFSET 0.000000 10.000000 0.000000
							CHANNELS 3 Zrotation Xrotation Yrotation
							End Site
							{
							    OFFSET 0.000000 5.000000 0.000000
							}
						}
					}
				}
			}
		}
	}
}
MOTION
Frames:	10
Frame Time:	0.033332
-187.296000 86.540700 -35.499900 -1.121062 -1.462698 -3.120564 -2.219147 -2.485029 -26.142700 -0.000000 7.391456 -0.000000 5.189139 15.631439 -0.380785 -0.000000 2.235703 -0.000000 0.000000 0.000000 -0.000000 2.681165 -3.400871 30.759514 0.000000 8.366798 -0.000000 0.058865 16.412259 -9.378667 -0.000000 -1.855672 -0.000000 -0.000000 -0.000000 -0.000000 0.956161 -0.006633 0.129402 0.000000 1.849781 0.000000 -0.000000 -0.000000 -0.000000 3.623700 0.000000 4.983107 91.847853 -7.575256 13.904830 -0.000000 -8.027719 -0.000000 2.298493 10.559092 -13.354790 -0.000000 0.000000 -0.000000 -4.827643 0.000000 -3.872093 -88.769160 -13.040544 -10.247518 -0.000010 -3.891086 -0.000000 -1.181872 16.911714 21.626906 -0.000000 0.000000 -0.000000 -0.000000 -0.000000 -0.000000 -3.887463 4.316780 0.852799 -0.000000 0.000000 -0.000000 
-187.291000 86.540400 -35.530700 -1.126248 -1.449589 -3.100571 -2.213099 -2.507467 -26.154493 -0.000000 7.375131 -0.000000 5.177388 15.647929 -0.392717 -0.000000 2.220483 -0.000000 -0.000000 0.000000 -0.000000 2.689109 -3.441455 30.759957 -0.000000 8.371604 -0.000000 0.069278 16.411875 -9.432659 -0.000000 -1.870007 0.000000 0.000000 0.000000 -0.000000 0.954341 0.016477 0.119705 -0.000000 1.870359 -0.000000 -0.000000 0.000000 -0.000000 3.620543 -0.000000 4.983047 91.694619 -7.613051 13.839978 0.000000 -8.024242 -0.000000 2.228487 10.576132 -13.258555 -0.000000 0.000000 0.000000 -4.840001 -0.000000 -3.906508 -88.641185 -13.103185 -10.246925 -0.000010 -3.867839 -0.000000 -1.067108 16.799161 21.906662 0.000000 -0.000000 -0.000000 -0.000000 0.000000 -0.000000 -3.845794 4.229922 0.972078 0.000000 0.000000 -0.000000 
-187.282900 86.538800 -35.561100 -1.123294 -1.441367 -3.086540 -2.223520 -2.541584 -26.194862 -0.000000 7.391006 -0.000000 5.169388 15.645418 -0.368567 -0.000000 2.263989 -0.000000 0.000000 0.000000 -0.000000 2.678703 -3.471563 30.740491 -0.000000 8.368737 0.000000 0.076107 16.451173 -9.401476 -0.000000 -1.888827 -0.000000 -0.000000 0.000000 0.000000 0.952958 0.041076 0.139041 -0.000000 1.899082 -0.000000 -0.000000 -0.000000 -0.000000 3.620381 0.000000 5.001209 91.592321 -7.675677 13.935631 -0.000000 -8.010961 -0.000000 2.293147 10.506905 -13.203875 -0.000000 0.000000 -0.000000 -4.868899 -0.000000 -3.941589 -88.592876 -13.125640 -10.216880 -0.000010 -3.845027 -0.000000 -1.115820 16.832131 21.834646 -0.000000 0.000000 -0.000000 -0.000000 -0.000000 -0.000000 -3.849193 4.192331 1.139286 0.000000 0.000000 -0.000000 
-187.275500 86.539200 -35.584200 -1.122501 -1.433017 -3.066859 -2.232550 -2.566107 -26.224651 -0.000000 7.396685 -0.000000 5.183032 15.663060 -0.357079 -0.000000 2.258244 -0.000000 -0.000000 0.000000 -0.000000 2.675349 -3.494683 30.749727 -0.000000 8.361787 0.000000 0.063630 16.473971 -9.435200 0.000000 -1.873955 -0.000000 0.000000 -0.000000 -0.000000 0.956185 0.060364 0.188741 -0.000000 1.892846 -0.000000 0.000000 0.000000 -0.000000 3.612338 0.000000 4.990496 91.558687 -7.752851 14.140936 -0.000000 -7.979135 -0.000000 2.362570 10.457101 -13.311118 -0.000000 0.000000 -0.000000 -4.880906 0.000000 -3.969476 -88.654146 -13.139974 -10.206483 -0.000010 -3.741401 -0.000000 -1.211738 16.837887 21.947545 -0.000000 0.000000 -0.000000 0.000000 0.000000 -0.000000 -3.861866 4.274718 1.349985 0.000000 0.000000 -0.000000 
-187.270200 86.538300 -35.600600 -1.123546 -1.422542 -3.041516 -2.229429 -2.577632 -26.222742 0.000000 7.382669 -0.000000 5.169350 15.671233 -0.385145 -0.000000 2.255896 -0.000000 0.000000 0.000000 0.000000 2.672591 -3.515185 30.753989 0.000000 8.351835 -0.000000 0.065392 16.490780 -9.461143 -0.000000 -1.875923 -0.000000 -0.000000 -0.000000 -0.000000 0.965854 0.058518 0.219446 -0.000000 1.898619 0.000000 0.000000 -0.000000 0.000000 3.599805 -0.000000 5.036943 91.557950 -7.833758 14.242093 -0.000000 -7.982870 -0.000000 2.478475 10.437795 -13.165621 -0.000000 0.000000 -0.000000 -4.932701 0.000000 -4.022851 -88.731771 -13.201500 -10.397918 -0.000010 -3.650504 -0.000000 -1.273405 16.867080 21.883503 -0.000000 -0.000000 0.000000 0.000000 -0.000000 0.000000 -3.877055 4.388270 1.582786 -0.000000 0.000000 -0.000000 
-187.263000 86.542000 -35.609800 -1.117036 -1.421014 -3.014110 -2.243180 -2.585239 -26.255837 -0.000000 7.389557 0.000000 5.162307 15.681623 -0.377888 -0.000000 2.248092 -0.000000 -0.000000 0.000000 -0.000000 2.659399 -3.528706 30.735668 0.000000 8.354637 -0.000000 0.124251 16.459107 -9.465139 -0.000000 -1.796370 -0.000000 -0.000000 0.000000 -0.000000 0.968733 0.045363 0.274553 0.000000 1.900109 -0.000000 0.000000 -0.000000 -0.000000 3.565881 -0.000000 5.057647 91.580019 -7.911519 14.342024 0.000000 -8.016193 -0.000000 2.706636 10.433724 -13.266486 -0.000000 -0.000000 0.000000 -4.994586 -0.000000 -4.072812 -88.825332 -13.243727 -10.564944 -0.000010 -3.619007 -0.000000 -1.317016 17.010779 21.627340 -0.000000 0.000000 -0.000000 0.000000 -0.000000 -0.000000 -3.854744 4.612713 1.764553 -0.000000 -0.000000 -0.000000 
-187.258200 86.538300 -35.613800 -1.111982 -1.419261 -2.961310 -2.254289 -2.583263 -26.282173 0.000000 7.395214 0.000000 5.176518 15.656601 -0.395644 -0.000000 2.257368 -0.000000 -0.000000 0.000000 -0.000000 2.653296 -3.543504 30.705470 -0.000000 8.355312 -0.000000 0.077631 16.506084 -9.489446 -0.000000 -1.868358 -0.000000 -0.000000 -0.000000 -0.000000 0.963489 0.019786 0.313692 0.000000 1.916994 -0.000000 0.000000 0.000000 -0.000000 3.531637 -0.000000 5.098625 91.610818 -8.019271 14.439163 0.000000 -8.031196 0.000000 2.758500 10.382110 -13.250379 -0.000000 -0.000000 -0.000000 -5.080754 -0.000000 -4.157268 -88.874025 -13.320317 -10.623523 -0.000010 -3.589253 -0.000000 -1.409951 16.912688 21.624589 0.000000 -0.000000 -0.000000 0.000000 0.000000 -0.000000 -3.763396 4.841789 1.885828 0.000000 0.000000 0.000000 
-187.257100 86.536100 -35.613900 -1.102381 -1.442138 -2.912449 -2.264548 -2.561171 -26.287569 -0.000000 7.404884 -0.000000 5.176436 15.612050 -0.456768 0.000000 2.271873 -0.000000 -0.000000 -0.000000 0.000000 2.642926 -3.538121 30.637688 0.000000 8.376006 0.000000 0.063778 16.504852 -9.473189 -0.000000 -1.869306 -0.000000 -0.000000 0.000000 -0.000000 0.944772 0.010962 0.332130 -0.000000 1.923460 0.000000 -0.000000 0.000000 0.000000 3.507386 0.000000 5.114498 91.592907 -8.081426 14.601580 -0.000000 -8.021763 -0.000000 2.856548 10.388801 -13.156924 0.000000 0.000000 0.000000 -5.133970 -0.000000 -4.164754 -88.933392 -13.386158 -10.838773 -0.000010 -3.578608 -0.000000 -1.525514 16.984814 21.667127 -0.000000 0.000000 -0.000000 -0.000000 0.000000 0.000000 -3.649666 5.112959 1.955527 0.000000 0.000000 -0.000000 
-187.257300 86.533100 -35.610100 -1.100472 -1.465867 -2.878619 -2.273057 -2.540573 -26.326711 -0.000000 7.430401 -0.000000 5.155582 15.612123 -0.435535 -0.000000 2.224549 -0.000000 -0.000000 -0.000000 -0.000000 2.638406 -3.517337 30.622253 0.000000 8.379531 -0.000000 0.093806 16.476296 -9.486872 -0.000000 -1.835839 -0.000000 0.000000 -0.000000 0.000000 0.933952 -0.001300 0.375235 -0.000000 1.936884 -0.000000 -0.000000 0.000000 -0.000000 3.471591 0.000000 5.129352 91.567676 -8.153760 14.668973 0.000000 -8.017226 -0.000000 2.929539 10.395770 -13.176577 0.000000 0.000000 -0.000000 -5.170519 0.000000 -4.177311 -88.977492 -13.436862 -10.986123 -0.000009 -3.567311 -0.000000 -1.645364 16.810255 21.714870 -0.000000 0.000000 -0.000000 -0.000000 0.000000 -0.000000 -3.558612 5.361223 1.964445 0.000000 0.000000 -0.000000 
-187.263300 86.528500 -35.610900 -1.100952 -1.486283 -2.833693 -2.272873 -2.522058 -26.316719 -0.000000 7.451750 0.000000 5.180061 15.572875 -0.491704 -0.000000 2.223563 0.000000 0.000000 -0.000000 -0.000000 2.650349 -3.524328 30.583901 0.000000 8.421675 -0.000000 0.107147 16.445888 -9.497712 0.000000 -1.829995 -0.000000 0.000000 -0.000000 0.000000 0.921512 -0.018105 0.413878 0.000000 1.958431 -0.000000 -0.000000 0.000000 0.000000 3.440042 0.000000 5.133495 91.514010 -8.206172 14.643275 -0.000000 -8.051313 -0.000000 2.938645 10.424550 -13.098458 -0.000000 0.000000 -0.000000 -5.172974 0.000000 -4.174450 -89.020080 -13.477730 -11.081990 -0.000010 -3.647928 -0.000000 -1.668267 16.880744 21.465169 -0.000000 0.000000 -0.000000 -0.000000 0.000000 0.000000 -3.504318 5.584668 1.960695 0.000000 0.000000 -0.000000 
